<svg width="202" height="74" viewBox="0 0 202 74" fill="none" xmlns="http://www.w3.org/2000/svg">
<path d="M92.6048 12.9204H100.16L119.461 61H112.523L97.6188 22.2616C97.4815 21.8953 97.3441 21.529 97.2067 21.1626C96.8862 20.2926 96.5657 19.4455 96.2451 18.6213C96.062 19.1708 95.9017 19.5829 95.7643 19.8576C95.6727 20.1324 95.5354 20.5445 95.3522 21.094L94.8714 22.2616L79.9668 61H73.373L92.6048 12.9204ZM84.4313 41.4934H107.99V46.7135H84.4313V41.4934ZM134.141 62.0303C131.577 62.0303 129.402 61.5266 127.616 60.5192C125.83 59.5118 124.479 58.0465 123.564 56.1234C122.648 54.1544 122.19 51.7733 122.19 48.9801V27.8938H128.097V47.7438C128.097 50.9949 128.692 53.4217 129.883 55.0244C131.073 56.627 132.996 57.4284 135.652 57.4284C137.438 57.4284 138.949 56.9934 140.185 56.1234C141.467 55.2076 142.429 53.9254 143.07 52.277C143.757 50.5828 144.1 48.5451 144.1 46.164V27.8938H149.939V61H144.169V59.0081C144.169 58.3213 144.169 57.6573 144.169 57.0163V56.3981C143.391 58.1381 142.086 59.5118 140.254 60.5192C138.422 61.5266 136.385 62.0303 134.141 62.0303ZM158.035 12.9204H163.942V61H158.035V12.9204ZM158.035 12.9204H160.988V17.7971H158.035V12.9204ZM158.035 56.1234H163.942V61H158.035V56.1234ZM181.482 62.0303C179.376 62.0303 177.453 61.6182 175.713 60.7939C173.973 59.9697 172.599 58.8021 171.592 57.291C170.584 55.7341 170.081 53.9483 170.081 51.9336C170.081 48.9572 171.088 46.6219 173.103 44.9277C175.163 43.2335 177.819 42.1345 181.07 41.6308L188.145 40.5318C189.381 40.3487 190.251 40.0053 190.755 39.5016C191.258 38.9979 191.51 38.2423 191.51 37.235C191.51 35.4491 190.892 34.0526 189.656 33.0452C188.419 31.992 186.817 31.4654 184.848 31.4654C182.375 31.4654 180.475 32.0836 179.147 33.3199C177.819 34.5105 177.109 36.1589 177.018 38.2652H171.111C171.202 36.2047 171.775 34.3044 172.828 32.5644C173.881 30.8244 175.392 29.4278 177.361 28.3746C179.376 27.3214 181.711 26.7948 184.367 26.7948C187.069 26.7948 189.381 27.2985 191.304 28.3059C193.273 29.3133 194.761 30.7557 195.769 32.6331C196.776 34.5105 197.28 36.7313 197.28 39.2955V61H191.648V59.3516C191.648 58.39 191.648 57.4513 191.648 56.5355C190.823 58.2755 189.518 59.6263 187.733 60.5879C185.993 61.5495 183.909 62.0303 181.482 62.0303ZM182.306 57.4284C184.046 57.4284 185.603 57.0621 186.977 56.3294C188.397 55.551 189.495 54.4978 190.274 53.1699C191.098 51.7962 191.51 50.2393 191.51 48.4993V43.6227C191.327 43.9432 190.915 44.2179 190.274 44.4469C189.679 44.6758 188.877 44.8819 187.87 45.0651L183.062 45.958C180.956 46.3701 179.284 47.0569 178.048 48.0185C176.812 48.9801 176.193 50.2851 176.193 51.9336C176.193 53.582 176.766 54.9099 177.911 55.9173C179.101 56.9247 180.566 57.4284 182.306 57.4284Z" fill="#C9C8B7"/>
<circle cx="29.4569" cy="36.8212" r="26.5112" stroke="#C9C8B7" stroke-width="5.89138"/>
<circle cx="29.4569" cy="36.821" r="8.83707" fill="#C9C8B7"/>
</svg>
